<svg width="32" height="32" viewBox="0 0 32 32" fill="none" xmlns="http://www.w3.org/2000/svg">
<path d="M16 24C15.45 24 14.9792 23.8042 14.5875 23.4125C14.1958 23.0208 14 22.55 14 22C14 21.45 14.1958 20.9792 14.5875 20.5875C14.9792 20.1958 15.45 20 16 20C16.55 20 17.0208 20.1958 17.4125 20.5875C17.8042 20.9792 18 21.45 18 22C18 22.55 17.8042 23.0208 17.4125 23.4125C17.0208 23.8042 16.55 24 16 24V24M16 18C15.45 18 14.9792 17.8042 14.5875 17.4125C14.1958 17.0208 14 16.55 14 16C14 15.45 14.1958 14.9792 14.5875 14.5875C14.9792 14.1958 15.45 14 16 14C16.55 14 17.0208 14.1958 17.4125 14.5875C17.8042 14.9792 18 15.45 18 16C18 16.55 17.8042 17.0208 17.4125 17.4125C17.0208 17.8042 16.55 18 16 18V18M16 12C15.45 12 14.9792 11.8042 14.5875 11.4125C14.1958 11.0208 14 10.55 14 10C14 9.45 14.1958 8.97917 14.5875 8.5875C14.9792 8.19583 15.45 8 16 8C16.55 8 17.0208 8.19583 17.4125 8.5875C17.8042 8.97917 18 9.45 18 10C18 10.55 17.8042 11.0208 17.4125 11.4125C17.0208 11.8042 16.55 12 16 12V12" fill="#434655"/>
</svg>
