<svg width="14" height="14" viewBox="0 0 14 14" fill="none" xmlns="http://www.w3.org/2000/svg">
<path d="M6.46667 10.6667C5.4 10.6111 4.5 10.2 3.76667 9.43333C3.03333 8.66667 2.66667 7.74444 2.66667 6.66667C2.66667 5.55556 3.05556 4.61111 3.83333 3.83333C4.61111 3.05556 5.55556 2.66667 6.66667 2.66667C7.74444 2.66667 8.66667 3.03333 9.43333 3.76667C10.2 4.5 10.6111 5.4 10.6667 6.46667L9.26667 6.05C9.12222 5.45 8.81111 4.95833 8.33333 4.575C7.85556 4.19167 7.3 4 6.66667 4C5.93333 4 5.30556 4.26111 4.78333 4.78333C4.26111 5.30556 4 5.93333 4 6.66667C4 7.3 4.19167 7.85556 4.575 8.33333C4.95833 8.81111 5.45 9.12222 6.05 9.26667L6.46667 10.6667ZM7.26667 13.3C7.16667 13.3222 7.06667 13.3333 6.96667 13.3333C6.86667 13.3333 6.76667 13.3333 6.66667 13.3333C5.74444 13.3333 4.87778 13.1583 4.06667 12.8083C3.25556 12.4583 2.55 11.9833 1.95 11.3833C1.35 10.7833 0.875 10.0778 0.525 9.26667C0.175 8.45555 0 7.58889 0 6.66667C0 5.74444 0.175 4.87778 0.525 4.06667C0.875 3.25556 1.35 2.55 1.95 1.95C2.55 1.35 3.25556 0.875 4.06667 0.525C4.87778 0.175 5.74444 0 6.66667 0C7.58889 0 8.45555 0.175 9.26667 0.525C10.0778 0.875 10.7833 1.35 11.3833 1.95C11.9833 2.55 12.4583 3.25556 12.8083 4.06667C13.1583 4.87778 13.3333 5.74444 13.3333 6.66667C13.3333 6.76667 13.3333 6.86667 13.3333 6.96667C13.3333 7.06667 13.3222 7.16667 13.3 7.26667L12 6.86667V6.66667C12 5.17778 11.4833 3.91667 10.45 2.88333C9.41667 1.85 8.15556 1.33333 6.66667 1.33333C5.17778 1.33333 3.91667 1.85 2.88333 2.88333C1.85 3.91667 1.33333 5.17778 1.33333 6.66667C1.33333 8.15556 1.85 9.41667 2.88333 10.45C3.91667 11.4833 5.17778 12 6.66667 12C6.7 12 6.73333 12 6.76667 12C6.8 12 6.83333 12 6.86667 12L7.26667 13.3ZM12.35 13.6667L9.5 10.8167L8.66667 13.3333L6.66667 6.66667L13.3333 8.66667L10.8167 9.5L13.6667 12.35L12.35 13.6667Z" fill="#434655"/>
</svg>
