<svg width="33" height="29" viewBox="0 0 33 29" fill="none" xmlns="http://www.w3.org/2000/svg">
<path d="M6.3 28.5C5.875 28.5 5.44375 28.3688 5.00625 28.1063C4.56875 27.8438 4.25 27.5375 4.05 27.1875L0.3 20.625C0.1 20.275 0 19.8438 0 19.3312C0 18.8187 0.1 18.3875 0.3 18.0375L10.05 1.3125C10.25 0.9625 10.5688 0.65625 11.0063 0.39375C11.4438 0.13125 11.875 0 12.3 0H19.8C20.225 0 20.6562 0.13125 21.0938 0.39375C21.5312 0.65625 21.85 0.9625 22.05 1.3125L28.875 13.0125C28.3 12.8625 27.7062 12.7625 27.0938 12.7125C26.4813 12.6625 25.875 12.6875 25.275 12.7875L19.575 3H12.525L3 19.35L6.525 25.5H18.375C18.65 26.075 18.9688 26.6125 19.3312 27.1125C19.6937 27.6125 20.1125 28.075 20.5875 28.5H6.3ZM8.925 21.75L7.8375 19.8375L14.7 7.875H17.4L21.1875 14.475C20.7625 14.8 20.3687 15.1562 20.0063 15.5437C19.6438 15.9312 19.325 16.3375 19.05 16.7625L16.05 11.55L11.925 18.75H18.075C17.9 19.225 17.7687 19.7125 17.6812 20.2125C17.5938 20.7125 17.55 21.225 17.55 21.75H8.925ZM25.05 27.75V23.25H20.55V20.25H25.05V15.75H28.05V20.25H32.55V23.25H28.05V27.75H25.05Z" fill="#004AC6"/>
</svg>
