<svg width="24" height="24" viewBox="0 0 24 24" fill="none" xmlns="http://www.w3.org/2000/svg">
<rect width="24" height="24" rx="12" fill="#BA1A1A"/>
<path d="M11.3174 12.6954L11.2113 7.72461H12.7875L12.6792 12.6954H11.3174ZM12.0017 15.0925C11.7473 15.0925 11.5391 15.0159 11.3771 14.8627C11.2152 14.7095 11.1342 14.5109 11.1342 14.2668C11.1342 14.0212 11.2152 13.8218 11.3771 13.6686C11.5391 13.5154 11.7473 13.4388 12.0017 13.4388C12.2578 13.4388 12.466 13.5154 12.6264 13.6686C12.7867 13.8218 12.8669 14.0212 12.8669 14.2668C12.8669 14.5109 12.7867 14.7095 12.6264 14.8627C12.466 15.0159 12.2578 15.0925 12.0017 15.0925Z" fill="white"/>
</svg>
